<svg width="37" height="9" fill="none" xmlns="http://www.w3.org/2000/svg"><path d="M12.156 8.88V0H9.912L5.22 6.852l-.792-.996C5.844 5.64 6.636 4.392 6.636 3.06c0-1.272-.696-2.34-1.632-2.748C4.536.108 3.84 0 2.916 0H0v8.88h2.172V6.012h.024L4.248 8.88H6.54l.78-1.284h2.568V8.88h2.268zM2.172 4.464V1.992h.864c.852 0 1.428.432 1.428 1.2 0 .816-.54 1.272-1.44 1.272h-.852zm7.716 1.332H8.4l1.464-2.46h.024v2.46zM21.258 8.88V0h-2.172l.096 5.616L15.726 0h-1.957v8.88h2.172l-.06-5.424L19.29 8.88h1.968zM27.807 8.88V6.888h-2.76V5.364h2.676V3.372h-2.676v-1.38h2.76V0h-4.932v8.88h4.932zM36.823 8.88L33.69 4.428 36.63 0h-2.376l-2.508 3.996h-.024V0h-2.268v8.88h2.268V5.04h.024l2.424 3.84h2.652z" fill="#87F"/></svg>